<svg width="164" height="63" viewBox="0 0 164 63" fill="none" xmlns="http://www.w3.org/2000/svg">
<path d="M89.6047 34.5601C89.5658 34.5212 89.5025 34.5066 89.4538 34.5309C89.4003 34.5553 89.3711 34.6039 89.3711 34.6623L89.5317 38.5024C89.5366 38.5802 89.5998 38.6386 89.6728 38.6338C89.7507 38.6289 89.8091 38.5656 89.8043 38.4926L89.6582 34.9641C90.1839 35.3632 91.4931 36.137 93.0067 35.3437L91.9944 38.7165C91.97 38.7895 92.0138 38.8674 92.0869 38.8869C92.0966 38.8869 92.1014 38.8917 92.1112 38.8917C92.1745 38.8966 92.2377 38.8577 92.2572 38.7944L93.3669 35.0858C93.3815 35.0322 93.362 34.969 93.3182 34.9349C93.2744 34.9008 93.2111 34.9008 93.1624 34.93C91.2595 36.1857 89.6728 34.6283 89.6047 34.5601Z" fill="#333333"/>
<path d="M47.9784 34.7305C50.7379 34.0735 53.4975 33.2461 56.257 32.2484C59.0166 31.2507 61.4987 30.0388 63.7083 28.6225C65.9179 27.2014 67.7138 25.5077 69.1106 23.5366C70.5026 21.5654 71.1986 19.2926 71.1986 16.718C71.1986 14.9318 70.7897 13.316 69.977 11.8705C69.1593 10.425 68.0691 9.14986 66.7064 8.04506C65.3388 6.94027 63.7911 5.98148 62.0536 5.1687C60.3209 4.35592 58.5299 3.65994 56.6902 3.08078C54.8505 2.50161 53.0497 2.02952 51.2879 1.65963C49.5261 1.29461 47.9394 1.00259 46.5183 0.793312C44.8343 0.584034 43.0774 0.39909 41.2376 0.243347C39.3931 0.0778712 37.6361 0 35.9521 0C33.1634 0 30.3405 0.184944 27.4739 0.549965C24.6122 0.919853 21.7991 1.46008 19.0395 2.17066C16.2799 2.88123 13.6129 3.77675 11.0382 4.85235C8.46362 5.92794 6.09828 7.20795 3.94223 8.67777C3.78648 8.7313 3.49447 8.91625 3.07591 9.22773C2.65249 9.54408 2.21933 9.9091 1.77644 10.3325C1.32868 10.7511 0.919853 11.194 0.549965 11.6709C0.184944 12.143 0 12.5616 0 12.9315C0 13.5642 0.632703 13.8757 1.89324 13.8757C2.3118 13.8757 2.79849 13.8124 3.35333 13.6761C3.90329 13.5447 4.69174 13.3111 5.71866 12.9655C6.74559 12.6249 8.0986 12.1625 9.7777 11.5833C11.4617 11.0042 13.6421 10.2449 16.3237 9.29587C19.6333 8.40035 22.9866 7.68004 26.3789 7.13008C29.7711 6.58011 33.1974 6.3027 36.6676 6.3027C38.298 6.3027 40.1474 6.37083 42.2256 6.50224C44.299 6.63365 46.4063 6.87213 48.5332 7.21282C50.66 7.5535 52.7382 8.00126 54.7629 8.55123C56.7875 9.10119 58.5883 9.78743 60.1652 10.6002C61.7421 11.4179 63.0172 12.362 63.9906 13.4376C64.964 14.5132 65.4507 15.764 65.4507 17.1803C65.4507 18.9665 64.8472 20.558 63.6353 21.9499C62.4235 23.3419 60.8612 24.5927 58.9436 25.6926C57.026 26.7974 54.8846 27.7416 52.5192 28.53C50.1539 29.3185 47.8129 29.9901 45.5011 30.5401C43.1893 31.0901 41.0186 31.5378 38.994 31.8785C36.9693 32.2192 35.3778 32.4674 34.2244 32.628C34.2779 31.9466 34.4093 31.0657 34.6186 29.9853C34.8279 28.9097 35.0128 27.7513 35.1686 26.5151C35.3243 25.2789 35.4168 24.0573 35.446 22.8503C35.4703 21.6433 35.3681 20.5385 35.1296 19.5408C34.8911 18.5431 34.458 17.7254 33.8302 17.0976C33.1974 16.4649 32.3068 16.1534 31.1485 16.1534C30.5693 16.1534 30.1118 16.533 29.7711 17.2971C29.4304 18.0612 29.153 19.02 28.9437 20.1735C28.7345 21.3318 28.5641 22.607 28.4327 23.9989C28.3013 25.3909 28.1845 26.7439 28.0774 28.0579C27.9703 29.372 27.8827 30.5547 27.8 31.606C27.7221 32.6572 27.6005 33.3921 27.4447 33.8155C25.2887 34.1319 23.1861 34.4336 21.1371 34.7208C19.0882 35.0128 17.0635 35.2075 15.0681 35.3146C14.3332 35.4216 13.1748 35.553 11.5979 35.7088C10.021 35.8645 8.40522 36.0787 6.75046 36.3415C5.09569 36.6043 3.65021 36.9207 2.41401 37.2857C1.1778 37.6556 0.559699 38.0498 0.559699 38.4683C0.559699 38.8918 0.885784 39.2033 1.54282 39.4125C2.19986 39.6218 3.01264 39.7532 3.98603 39.8068C4.95942 39.8603 6.01068 39.8603 7.13981 39.8068C8.26894 39.7532 9.3348 39.69 10.3325 39.6121C11.3303 39.5342 12.1576 39.4661 12.8147 39.4125C13.4717 39.359 13.827 39.359 13.8805 39.4125C16.0901 39.2033 18.3095 38.994 20.5434 38.7798C22.7773 38.5706 25.0502 38.3321 27.362 38.0693C27.362 42.1186 27.4252 48.9128 27.5567 51.648C27.6881 54.3784 28.1212 56.6951 28.8561 58.5883C29.1189 59.4303 29.4596 59.8488 29.8831 59.8488C30.5644 59.8488 31.1436 59.1529 31.6157 57.7609C32.0878 56.369 32.482 54.6704 32.7984 52.675C33.1147 50.6795 33.3629 45.1701 33.5479 42.9605C33.7328 40.7509 33.8496 38.8334 33.9032 37.2029C35.5336 36.9937 37.5972 36.6919 40.0939 36.2977C42.5907 35.9132 45.2188 35.3876 47.9784 34.7305Z" fill="#333333"/>
<path d="M163.794 44.6444C163.555 44.3281 163.268 44.1334 162.927 44.0555C162.587 43.9776 162.231 44.0312 161.861 44.2112C161.492 44.3962 161.234 44.7515 161.073 45.2771C160.966 45.8563 160.732 46.6983 160.362 47.7982C159.993 48.903 159.589 50.0078 159.141 51.1077C158.693 52.2125 158.245 53.1713 157.802 53.9841C157.355 54.8017 156.975 55.2057 156.659 55.2057C156.235 55.2057 155.963 54.7336 155.831 53.7845C155.7 52.8403 155.661 51.7063 155.715 50.3923C155.768 49.0782 155.885 47.7106 156.07 46.2943C156.255 44.8732 156.449 43.6905 156.659 42.7463C156.761 42.0649 156.63 41.4712 156.264 40.9699C155.895 40.4686 155.423 40.1035 154.843 39.8651C154.264 39.6266 153.661 39.539 153.028 39.5876C152.395 39.6412 151.87 39.904 151.451 40.3761C151.081 39.7434 150.624 39.1691 150.069 38.6435C149.519 38.1178 148.872 37.7771 148.137 37.6165C146.19 37.2515 144.535 37.5533 143.168 38.5218C141.8 39.4952 140.71 40.8239 139.897 42.503C139.517 43.2865 139.206 44.1236 138.943 44.9948C138.904 45.0776 138.865 45.1652 138.831 45.2625C138.724 45.6324 138.49 46.2213 138.121 47.0341C137.751 47.8517 137.303 48.7424 136.782 49.7158C136.256 50.6892 135.653 51.7015 134.967 52.7527C134.285 53.804 133.575 54.7239 132.84 55.5123C132.105 56.3007 131.341 56.9188 130.552 57.3666C129.764 57.8144 129.029 57.9312 128.343 57.7219C127.817 57.5661 127.408 57.1963 127.121 56.6171C126.834 56.0379 126.62 55.3322 126.489 54.4902C126.357 53.6483 126.304 52.7041 126.333 51.6528C126.357 50.6015 126.45 49.526 126.61 48.4212C127.189 48.3676 127.856 48.2897 128.62 48.1827C129.379 48.0756 130.129 47.9053 130.869 47.6716C131.604 47.4332 132.29 47.1314 132.918 46.7664C133.55 46.4014 134.071 45.9244 134.495 45.3452C135.02 44.6639 135.244 43.7148 135.166 42.5078C135.088 41.3008 134.787 40.1181 134.261 38.9598C133.735 37.8063 132.986 36.794 132.012 35.9228C131.039 35.0565 129.925 34.6234 128.659 34.6234C127.345 34.6234 126.148 35.2804 125.072 36.5945C123.997 37.9086 123.101 39.5633 122.391 41.5636C121.923 42.8874 121.563 44.2745 121.305 45.7249C121.184 46.231 120.994 46.9075 120.736 47.7544C120.395 48.8835 119.986 50.0419 119.514 51.2245C119.042 52.4072 118.555 53.4438 118.054 54.3394C117.553 55.2349 117.066 55.6778 116.594 55.6778C116.068 55.6778 115.713 55.0061 115.528 53.6677C115.343 52.3293 115.251 50.6064 115.251 48.5039C115.251 46.4014 115.329 44.1139 115.489 41.6464C115.645 39.174 115.844 36.7843 116.078 34.4725C116.317 32.1607 116.54 30.1214 116.75 28.3596C116.959 26.5978 117.115 25.4054 117.222 24.7727C117.378 23.9307 117.154 23.2493 116.55 22.7237C115.947 22.198 115.251 21.9109 114.462 21.8574C113.674 21.8038 112.939 22.0277 112.253 22.529C111.566 23.0303 111.226 23.9063 111.226 25.1717C111.226 26.4858 111.094 28.4326 110.832 31.0072C110.569 33.5818 110.33 36.3706 110.121 39.3638C109.333 38.4196 108.413 37.8647 107.361 37.709C105.415 37.3927 103.76 37.6457 102.392 38.4585C101.025 39.2762 99.9344 40.415 99.1217 41.8897C98.4549 43.0967 97.9828 44.4303 97.6859 45.8806C97.5594 46.3965 97.3696 47.0292 97.1116 47.8031C96.7417 48.9079 96.3475 50.0126 95.9289 51.1126C95.5055 52.2174 95.0724 53.1762 94.6295 53.9889C94.1817 54.8066 93.8021 55.2105 93.4857 55.2105C93.0136 55.2105 92.7119 54.7384 92.5805 53.7894C92.4491 52.8452 92.4101 51.7112 92.4637 50.3971C92.5172 49.0831 92.634 47.7154 92.819 46.2992C93.0039 44.878 93.1986 43.6953 93.4079 42.7512C93.5101 42.2109 93.4565 41.7242 93.2521 41.2911C93.3884 41.0867 93.4419 40.819 93.3738 40.561C93.5344 40.3469 93.5928 40.05 93.5149 39.7677C93.4955 39.7142 93.476 39.6607 93.4468 39.612C94.1622 38.9598 94.3764 38.0448 94.4348 37.6457C94.4445 37.5922 94.4981 37.4949 94.5321 37.4657C95.5444 36.648 96.1723 35.4848 96.3086 34.1999C96.586 31.5426 94.6538 29.148 91.9916 28.8706C89.3342 28.5932 86.9397 30.5254 86.6623 33.1876C86.526 34.4774 86.9056 35.7428 87.7281 36.7551C87.7525 36.7892 87.7865 36.8914 87.7817 36.9498C87.7573 37.3537 87.7719 38.2833 88.3414 39.0669C88.3024 39.1156 88.2635 39.1642 88.2343 39.2178C88.098 39.4708 88.0932 39.7726 88.2051 40.0208C88.1126 40.2058 88.0883 40.4102 88.1224 40.5951C87.7573 41.0964 87.5773 41.8167 87.5773 42.756C87.5773 43.5639 87.5578 44.3816 87.5286 45.2041C87.5189 45.2284 87.5091 45.2528 87.4994 45.2771C87.3923 45.647 87.1587 46.2359 86.7888 47.0487C86.4189 47.8663 85.9712 48.757 85.4504 49.7304C84.9248 50.7038 84.3213 51.7161 83.635 52.7673C82.9488 53.8186 82.2431 54.7384 81.5082 55.5269C80.7733 56.3153 80.0092 56.9334 79.2207 57.3812C78.4323 57.829 77.6974 57.9458 77.0111 57.7365C76.4855 57.5807 76.0767 57.2109 75.7895 56.6317C75.4975 56.0525 75.2882 55.3468 75.1568 54.5048C75.0254 53.6629 74.9719 52.7187 75.0011 51.6674C75.0254 50.6162 75.1179 49.5406 75.2785 48.4358C75.8577 48.3822 76.5244 48.3043 77.2885 48.1973C78.0478 48.0902 78.7973 47.9199 79.5371 47.6862C80.272 47.4478 80.9582 47.146 81.5861 46.781C82.2188 46.416 82.7444 45.939 83.1629 45.3598C83.6886 44.6785 83.9124 43.7294 83.8346 42.5224C83.7567 41.3154 83.4501 40.1327 82.9293 38.9744C82.4037 37.8209 81.6542 36.8086 80.6808 35.9374C79.7074 35.0711 78.5929 34.638 77.3323 34.638C76.0183 34.638 74.821 35.295 73.7454 36.6091C72.6698 37.9232 71.7743 39.5779 71.0637 41.5782C70.5721 42.9702 70.1974 44.4351 69.9346 45.9634C69.7934 46.5279 69.5842 47.2336 69.2921 48.0853C68.8687 49.3215 68.3966 50.5431 67.871 51.7501C67.3454 52.962 66.8343 54.023 66.333 54.9429C65.8317 55.8627 65.4278 56.3202 65.1114 56.3202C64.6393 56.3202 64.3473 55.9017 64.2451 55.0597C64.138 54.2177 64.138 53.2054 64.2451 52.0227C64.3522 50.84 64.5225 49.5941 64.7561 48.28C64.9946 46.9659 65.2136 45.8368 65.4278 44.8878C65.6371 43.9436 65.53 43.3401 65.1114 43.0724C64.688 42.8096 64.1672 42.6928 63.5345 42.7171C62.9018 42.7463 62.2351 42.8096 61.5245 42.9118C60.8139 43.0188 60.3029 42.9896 59.9865 42.8339C60.4051 41.8362 60.5657 40.9309 60.4586 40.1133C60.3516 39.3005 59.7481 38.8917 58.6433 38.8917C58.0106 38.8917 57.446 39.0864 56.9496 39.4806C56.4483 39.8748 56.0686 40.3469 55.8058 40.9017C55.543 41.4517 55.4408 42.0455 55.4895 42.6782C55.543 43.3109 55.8058 43.8608 56.2779 44.3329L56.0832 44.8829C56.0686 44.9218 56.054 44.9608 56.0394 44.9997L55.801 45.6713C55.6647 45.9731 55.6306 46.2359 55.6647 46.4646C55.5527 46.8589 55.4165 47.2969 55.2461 47.8031C54.8762 48.9079 54.482 50.0126 54.0635 51.1126C53.64 52.2174 53.2069 53.1762 52.764 53.9889C52.3162 54.8066 51.9366 55.2105 51.6203 55.2105C51.1482 55.2105 50.8415 54.7384 50.715 53.7894C50.5836 52.8452 50.5447 51.7112 50.5982 50.3971C50.6517 49.0831 50.7685 47.7154 50.9535 46.2992C51.1384 44.878 51.3331 43.6953 51.5424 42.7512C51.5959 42.2791 51.3428 41.8313 50.7929 41.4128C50.2429 40.9942 49.5956 40.6778 48.8607 40.4686C48.1258 40.2593 47.4298 40.2447 46.7728 40.4296C46.1157 40.6146 45.7605 41.1013 45.7069 41.8897C45.4976 42.4689 45.2592 43.2281 44.9963 44.1772C44.7335 45.1214 44.4464 46.124 44.13 47.1752C43.8137 48.2265 43.4876 49.2777 43.142 50.329C42.8013 51.3803 42.4704 52.3293 42.1589 53.1664C41.8426 54.0084 41.5262 54.68 41.2147 55.1765C40.8984 55.6778 40.6112 55.8724 40.3484 55.7702C40.0321 55.6632 39.9006 55.0743 39.9542 53.9987C40.0077 52.9231 40.1391 51.5944 40.3484 50.0175C40.5577 48.4406 40.767 46.7323 40.9762 44.8926C41.1855 43.0529 41.3413 41.2911 41.4483 39.612C41.5019 39.0328 41.2099 38.5997 40.582 38.3125C39.9493 38.0254 39.2436 37.9183 38.4552 37.9962C37.6667 38.074 36.9415 38.3368 36.2845 38.7846C35.6275 39.2324 35.2965 39.904 35.2965 40.7947C35.243 42.2645 35.1505 43.7635 35.0191 45.2868C34.8877 46.8102 34.7806 48.2849 34.7027 49.7012C34.6249 51.1223 34.5859 52.4364 34.5859 53.6434C34.5859 54.8553 34.6638 55.853 34.8244 56.6414C34.9802 57.4299 35.3111 58.1258 35.8075 58.7293C36.304 59.3329 36.8831 59.7952 37.5402 60.1116C38.1972 60.4279 38.8786 60.5447 39.5892 60.4669C40.2997 60.389 40.9178 60.058 41.4435 59.4837C42.2854 58.6417 43.0204 57.5662 43.6531 56.2521C44.2858 54.938 44.8357 53.5461 45.3078 52.0714C45.3078 53.0691 45.3857 53.9646 45.5463 54.7531C45.702 55.6486 46.033 56.4224 46.5343 57.0795C47.0356 57.7365 47.6099 58.2378 48.2669 58.5785C48.924 58.9192 49.6053 59.1187 50.3159 59.1674C51.0265 59.2209 51.6689 59.0603 52.2481 58.6953C53.1923 58.1161 54.0489 57.1963 54.813 55.9357C55.5722 54.6752 56.2341 53.3611 56.7841 51.9935C57.334 50.6259 57.7818 49.3653 58.1225 48.207C58.4632 47.0535 58.6871 46.2651 58.7941 45.8417C58.8379 45.7005 58.8623 45.574 58.8769 45.4475C59.0862 45.4475 59.2954 45.4475 59.5047 45.4475C59.7675 45.4475 60.0303 45.4231 60.2932 45.3696C59.8697 46.6301 59.5436 48.1048 59.3052 49.7839C59.0667 51.4679 59.0277 53.0545 59.1884 54.5535C59.3441 56.0525 59.714 57.3423 60.2932 58.4179C60.8723 59.4935 61.7922 60.058 63.0527 60.1116C64.1575 60.1651 65.1552 59.8877 66.0508 59.2842C66.9463 58.6807 67.759 57.8776 68.494 56.8799C69.0099 56.1839 69.4674 55.4393 69.8762 54.6508C70.2558 56.5538 70.9469 58.1404 71.9592 59.401C73.0105 60.7151 74.4803 61.3721 76.3735 61.3721C77.9504 61.3721 79.3813 61.0314 80.6711 60.3452C81.9608 59.6638 83.0997 58.8072 84.1023 57.7803C85.1 56.7534 85.9566 55.6242 86.6671 54.388C86.9154 53.9549 87.149 53.5266 87.3729 53.1032C87.5043 54.4756 87.8401 55.6972 88.4046 56.7534C89.0081 57.8825 90.0205 58.6612 91.4416 59.0798C92.3858 59.3426 93.257 59.2355 94.0454 58.7634C94.8339 58.2913 95.5542 57.6197 96.2161 56.7534C96.8731 55.8871 97.4523 54.8893 97.9487 53.7553C97.9682 53.7067 97.9877 53.6629 98.0071 53.6142C98.3624 54.7385 98.8491 55.7605 99.4867 56.6755C100.382 57.9652 101.589 58.7926 103.113 59.1576C103.955 59.474 104.952 59.4205 106.111 59.0019C107.162 58.6369 108.043 58.0577 108.753 57.2693C109.464 56.4808 110.028 55.5853 110.447 54.5876C110.812 56.1645 111.328 57.4396 111.985 58.413C112.642 59.3864 113.576 59.8731 114.783 59.8731C116.414 59.8731 117.82 59.2404 119.003 57.9798C119.879 57.0454 120.634 56.0136 121.266 54.8845C121.656 56.6804 122.327 58.1842 123.301 59.3961C124.352 60.7102 125.822 61.3672 127.715 61.3672C129.292 61.3672 130.723 61.0266 132.012 60.3403C133.297 59.6589 134.441 58.8024 135.444 57.7754C136.441 56.7485 137.298 55.6194 138.004 54.3832C138.106 54.2031 138.203 54.023 138.305 53.8429C138.325 53.9841 138.335 54.1252 138.359 54.2664C138.675 56.2131 139.279 57.9214 140.174 59.3913C141.07 60.8611 142.277 61.8101 143.8 62.2287C144.642 62.438 145.616 62.3601 146.716 61.9902C147.874 61.5181 148.818 60.7686 149.553 59.7417C150.288 58.7147 150.867 57.571 151.286 56.3105C151.967 57.7316 153.072 58.6515 154.595 59.07C155.539 59.3329 156.42 59.2258 157.238 58.7537C158.051 58.2816 158.79 57.61 159.447 56.7436C160.104 55.8773 160.684 54.8796 161.18 53.7456C161.681 52.6165 162.115 51.5263 162.48 50.475C162.845 49.4237 163.151 48.465 163.385 47.5986C163.623 46.7323 163.789 46.1386 163.896 45.8222C164.066 45.355 164.027 44.9608 163.794 44.6444ZM128.43 40.3469C128.849 39.1642 129.243 38.4926 129.613 38.3368C129.822 38.2298 130.017 38.3904 130.202 38.8089C130.387 39.2324 130.518 39.7531 130.596 40.3858C130.674 41.0185 130.689 41.6366 130.635 42.2401C130.582 42.8436 130.45 43.306 130.241 43.6175C129.978 44.0409 129.555 44.3135 128.98 44.4449C128.401 44.5763 127.822 44.6395 127.248 44.6395C127.618 42.9604 128.007 41.5296 128.43 40.3469ZM77.1036 40.3469C77.5221 39.1642 77.9164 38.4926 78.2863 38.3368C78.4955 38.2298 78.6902 38.3904 78.8752 38.8089C79.0601 39.2324 79.1915 39.7531 79.2694 40.3858C79.3473 41.0185 79.3619 41.6366 79.3083 42.2401C79.2548 42.8436 79.1234 43.306 78.9141 43.6175C78.6513 44.0409 78.2327 44.3135 77.6536 44.4449C77.0744 44.5763 76.4952 44.6395 75.9209 44.6395C76.2859 42.9604 76.6802 41.5296 77.1036 40.3469ZM87.4897 33.2703C87.7233 31.0608 89.709 29.4547 91.9186 29.6883C94.1282 29.9219 95.7343 31.9076 95.5007 34.1172C95.3887 35.1879 94.8631 36.1467 94.026 36.8281C93.8313 36.9838 93.6707 37.271 93.6317 37.5289C93.5344 38.1957 93.1791 39.208 91.9624 39.4611C91.9478 39.466 91.9332 39.466 91.9186 39.4708C91.6363 39.5244 91.3102 39.539 90.9306 39.5L90.8917 39.4952C88.7843 39.2567 88.5604 37.8307 88.6139 37.0033C88.6334 36.7405 88.536 36.4339 88.3754 36.2343C87.6941 35.3923 87.3777 34.3411 87.4897 33.2703ZM109.352 48.6645C109.143 50.0857 108.812 51.3705 108.369 52.5289C107.921 53.6872 107.395 54.6314 106.792 55.3663C106.188 56.1012 105.541 56.4175 104.86 56.3105C104.174 56.2034 103.648 55.7459 103.283 54.9331C102.913 54.1203 102.694 53.1178 102.611 51.9351C102.533 50.7524 102.582 49.5065 102.767 48.1924C102.952 46.8783 103.254 45.6811 103.672 44.6055C104.091 43.5299 104.631 42.649 105.288 41.9627C105.945 41.2813 106.695 41.0185 107.537 41.1743C108.116 41.2813 108.549 41.6999 108.836 42.4348C109.123 43.1697 109.323 43.9046 109.425 44.6444C109.586 45.9049 109.561 47.2434 109.352 48.6645ZM150.074 50.2025C149.835 51.8086 149.495 53.2638 149.047 54.5778C148.599 55.8919 148.073 56.9724 147.47 57.8095C146.866 58.6515 146.219 59.0214 145.538 58.9143C144.856 58.8072 144.34 58.2816 144 57.3374C143.659 56.3932 143.45 55.2495 143.367 53.9062C143.289 52.5678 143.338 51.1466 143.523 49.6476C143.708 48.1486 144.01 46.7713 144.428 45.5107C144.847 44.2502 145.387 43.2379 146.044 42.4737C146.701 41.7145 147.45 41.4079 148.292 41.5685C148.872 41.6756 149.305 42.1477 149.592 42.9896C149.879 43.8316 150.079 44.6979 150.186 45.5935C150.351 47.0633 150.307 48.6012 150.074 50.2025Z" fill="#333333"/>
<path d="M88.5819 33.5916C88.6305 32.0001 89.9738 30.7493 91.5751 30.798C91.7649 30.8029 91.9206 30.6568 91.9303 30.467C91.9352 30.2772 91.7892 30.1215 91.5994 30.1166C89.6234 30.0533 87.9638 31.601 87.9005 33.5673C87.8956 33.7571 88.0416 33.9128 88.2315 33.9177C88.4213 33.9274 88.577 33.7814 88.5819 33.5916Z" fill="#333333"/>
<path d="M95.6866 36.9595C95.5747 37.0909 95.5844 37.2904 95.7158 37.4024L97.7161 39.1496C97.7697 39.1934 97.8329 39.2226 97.8962 39.2275C97.9935 39.2372 98.0909 39.1983 98.159 39.1204C98.2758 38.989 98.2612 38.7894 98.1298 38.6775L96.1295 36.9303C95.9981 36.8183 95.7986 36.8281 95.6866 36.9595Z" fill="#333333"/>
<path d="M87.0881 30.0777C87.1416 30.1264 87.2049 30.1507 87.2681 30.1556C87.3655 30.1653 87.4628 30.1264 87.531 30.0485C87.6429 29.9171 87.6332 29.7175 87.5018 29.6056L85.4576 27.8146C85.3262 27.6977 85.1267 27.7123 85.0147 27.8438C84.8979 27.9752 84.9125 28.1747 85.044 28.2915L87.0881 30.0777Z" fill="#333333"/>
<path d="M83.8036 37.6704C83.6576 37.7629 83.6089 37.9575 83.7014 38.1035C83.7549 38.1911 83.8474 38.2447 83.9448 38.2544C84.008 38.2593 84.0762 38.2447 84.1346 38.2106L86.5534 36.7213C86.6994 36.6289 86.7481 36.4342 86.6556 36.2882C86.5632 36.1373 86.3685 36.0935 86.2225 36.186L83.8036 37.6704Z" fill="#333333"/>
<path d="M96.2369 30.7635C96.3002 30.7684 96.3683 30.7538 96.4267 30.7197L98.5925 29.3862C98.7385 29.2937 98.7872 29.099 98.6947 28.953C98.6023 28.807 98.4124 28.7583 98.2616 28.8508L96.0958 30.1844C95.9449 30.2768 95.9011 30.4715 95.9936 30.6175C96.0471 30.7003 96.1396 30.7538 96.2369 30.7635Z" fill="#333333"/>
<path d="M96.966 33.7717C96.9514 33.9469 97.0828 34.0977 97.2531 34.1123L99.6574 34.3119C99.8326 34.3265 99.9835 34.1951 99.9981 34.0247C100.013 33.8495 99.8813 33.6987 99.7109 33.6841L97.3066 33.4845C97.1363 33.4699 96.9806 33.6013 96.966 33.7717Z" fill="#333333"/>
<path d="M83.2219 32.876L85.704 33.0804C85.8792 33.095 86.0301 32.9636 86.0447 32.7933C86.0593 32.6181 85.9328 32.4672 85.7576 32.4526L83.2754 32.2482C83.1002 32.2336 82.9493 32.365 82.9347 32.5353C82.9201 32.7105 83.0467 32.8614 83.2219 32.876Z" fill="#333333"/>
</svg>
